<svg id="Layer_1" data-name="Layer 1" xmlns="http://www.w3.org/2000/svg" xmlns:xlink="http://www.w3.org/1999/xlink" viewBox="0 0 1200 1200"><defs><style>.cls-1{fill:#e01073;}.cls-2{fill:url(#linear-gradient);}</style><linearGradient id="linear-gradient" x1="303.03" y1="406.19" x2="303.03" y2="793.81" gradientUnits="userSpaceOnUse"><stop offset="0" stop-color="#e58077"/><stop offset="0.09" stop-color="#e57a77"/><stop offset="0.21" stop-color="#e46876"/><stop offset="0.35" stop-color="#e34b75"/><stop offset="0.5" stop-color="#e12374"/><stop offset="0.56" stop-color="#e01073"/><stop offset="1" stop-color="#bb1085"/></linearGradient></defs><path class="cls-1" d="M711.28,701.77h-161V663L651.42,535H552.89V494.57H711v37l-.49.62-102,129.25H711.28Zm-156.45-4.55h151.9V666H599.11L706.45,530V499.13h-149v31.33H660.83l-106,134.08Z"/><path class="cls-1" d="M790.85,607.38q11.11-1.39,15.9-3.49,8.6-3.63,8.59-11.32,0-9.36-6.59-12.92t-19.33-3.56q-14.29,0-20.25,7-4.24,5.17-5.66,14H725.09q1.26-20,11.23-32.83,15.85-20.12,54.44-20.12,25.11,0,44.61,9.92t19.51,37.44V661.3q0,7.28.27,17.61.42,7.82,2.38,10.61a14.1,14.1,0,0,0,5.87,4.61V700H820.09a44.68,44.68,0,0,1-2.52-8.66q-.69-4.05-1.11-9.22a82.32,82.32,0,0,1-19.11,15.23,57.84,57.84,0,0,1-29.23,7.4q-20.8,0-34.36-11.8T720.2,659.49q0-28.08,21.81-40.66,12-6.84,35.19-9.77ZM815.2,626a44.74,44.74,0,0,1-7.72,3.84,65.26,65.26,0,0,1-10.69,2.73l-9.07,1.67q-12.74,2.24-18.3,5.45-9.4,5.45-9.4,16.9,0,10.2,5.74,14.74a21.83,21.83,0,0,0,14,4.54,41.59,41.59,0,0,0,24-7.54q11-7.54,11.42-27.52Z"/><path class="cls-1" d="M974.25,544.16c.51.05,1.65.12,3.43.21v40.8q-3.78-.42-6.71-.56c-2-.09-3.54-.14-4.75-.14q-24,0-32.27,15.64-4.62,8.8-4.61,27.11V700h-40.1V547.73h38v26.54q9.22-15.22,16.07-20.82,11.18-9.36,29.06-9.36C973.11,544.09,973.74,544.12,974.25,544.16Z"/><path class="cls-1" d="M1084.08,544.16q.76.08,3.42.21v40.8c-2.52-.28-4.75-.47-6.71-.56s-3.54-.14-4.75-.14q-24,0-32.27,15.64-4.61,8.8-4.61,27.11V700H999.07V547.73h38v26.54q9.21-15.22,16.06-20.82,11.17-9.36,29.06-9.36C1082.94,544.09,1083.56,544.12,1084.08,544.16Z"/><path class="cls-2" d="M368.84,635.38l-1.57.78h0l1.57-.79Zm-57.37-28.72-.8,1.17h0l.8-1.17ZM350,626h0l-1.56.79h0Zm-23.83-10.36h0l.8-1.17h0Zm40.67,18.79-1.57.78h0l1.57-.78Zm-20.39-8.63L348,625l-19.42-9.72-.8,1.17ZM283.7,612.39h0L282,614.78h0Zm92.24,28.11,116.34,58.23-187,93.52L114.37,698.11,278.7,616.44l1.66-2.39L111.21,698.11l194,95.7,190.17-95.07L375.94,638.93ZM227.52,590.82l-21.47,10.95v21.92l21.47-11Zm0-25.06-21.47,11v21.92l21.47-11Zm0-50.12-21.47,10.94V548.5l21.47-10.94Zm0,25.06-21.47,10.94v21.93l21.47-11Zm24.28-62.5-21.47,10.94v21.92l21.47-10.94Zm0-47L230.33,442v18.9L251.8,450Zm0,21.91-21.47,10.95V486l21.47-10.94Zm-24.28-9.67-21.47,10.82v19l21.47-10.95ZM203.24,553.08,181.76,564v21.92L203.24,575Zm0-25.07-21.48,11v21.92l21.48-10.94Zm0,75.19-21.48,10.95v21.92l21.48-11Zm24.28-137.69-21.47,10.95v21.92l21.47-10.95ZM203.24,503,181.76,513.9v21.92l21.48-11Zm24.28-12.38-21.47,10.95v21.92l21.47-10.94Zm24.28,12.69-21.47,11v21.92l21.47-11Zm-48.56,74.88-21.48,10.94V611l21.48-11Zm-72.85-13L109.8,575.64v21.92l20.59-10.49Zm0,50.12-20.59,10.5v21.92l20.59-10.5Zm0-25.06-20.59,10.5v21.92l20.59-10.5ZM276.08,541l-21.47,11v.9l21.47-10.73Zm-14.36,28.4-7.11-3.64h0l7.11,3.64,14.36-7.07h0ZM130.39,640.33l-20.59,10.5v21.92l20.59-10.5Zm148.5-54.83h0l21.84-10.65h0Zm-148.5-45.41L109.8,550.58V572.5L130.39,562Zm0-25.07-20.59,10.5v21.92l20.59-10.5Zm145.69-49.2-21.47,10.95v21.92l21.47-10.95Zm-32.26,94.42h0l8,4.09h0Zm-1.09,1.45,0,10.85,0-10.85Zm-1.31-2.26,10.38-5.18v-.87l-21.47,11v21.92l10.54-5.37.06-21.2Zm34.66-118.67L254.61,451.7v21.92l21.47-10.94Zm-33.41,143.6h0l9.13,4.69h0Zm-1.81-.34-10.53,5.37v21.92l21.47-10.94v-9.3l-10.94-5.63Zm35.22-68.08-21.47,10.95v21.92l21.47-10.95ZM251.8,528.32l-21.47,10.95v21.92l21.47-11Zm2.81,62.19,5.91,3h0l-5.91-3Zm7.78-17.46,0,13.89,0-13.89Zm-7.78,25.88,6.27-3.19-6.27-3.22Zm21.47-108-21.47,10.95v21.92l21.47-11ZM154.68,628,133.2,638.9v21.92l21.48-10.94Zm99.93-25.89v20.47l21.47-10.7V591.13ZM276.08,419l-21.47,10.82v18.75l21.47-10.94Zm24.65,84.39-21.84,11.13v21.92l21.84-11.13Zm-97.49-25.49-21.48,10.95v21.92l21.48-10.95Zm0,150.37-21.48,11v19.61l21.48-10.7Zm24.28-12.38-21.47,11v19.9L227.52,636Zm24.28-12.37-21.47,10.94v20.18l21.47-10.7Zm48.93-125.19-21.84,11.13v21.92l21.84-11.13ZM130.39,665.4,109.8,675.89v18.77l20.59-10.25Zm0-173L109.8,502.78v19.6l20.59-10.5ZM179,640.64l-21.48,11v19.32L179,660.22Zm121.77-62.08L278.89,589.7v20.74l6.07-3,15.77-22.76Zm-8.65,21.74-3.78,5.46h0Zm8.65-147-21.84,11.13v21.92l21.84-11.13Zm0-25.07-21.84,11.14v21.92l21.84-11.14Zm0-21.62-21.84,11v18.61l21.84-11.13Zm0,121.87-21.84,11.13v1.15l21.84-10.9ZM278.89,561h0l21.84-10.75h0ZM179,540.39l-21.48,11v21.92l21.48-11Zm0-50.12-21.48,10.94v21.93L179,512.19ZM154.68,653,133.2,664v19l21.48-10.7ZM179,565.45,157.48,576.4v21.92L179,587.38Zm24.28-109.76-21.48,10.83V485.7l21.48-10.95ZM179,590.52l-21.48,10.94v21.92L179,612.44Zm0,25.06-21.48,10.94v21.93l21.48-11Zm0-100.25-21.48,10.95V548.2l21.48-11Zm-24.28-12.68L133.2,513.59v21.92l21.48-10.94Zm0-22.48L133.2,491v19.46l21.48-10.94Zm0,47.54L133.2,538.65v21.93l21.48-11Zm0,50.12L133.2,588.78V610.7l21.48-11Zm0,25.06-21.48,11v21.92l21.48-11Zm24.28-135-21.48,10.82v19.32L179,487.13Zm-24.28,84.84-21.48,11v21.92l21.48-10.95ZM400,624.07l-21.95-11.18V590.44L400,601.63Zm-1.41-21.58-19.13-9.76V612l19.13,9.75ZM400,599l-21.95-11.19V565.38L400,576.56Zm-1.41-21.59-19.13-9.75V587l19.13,9.76ZM400,548.89,378.07,537.7V515.25L400,526.44Zm-1.41-21.59-19.13-9.75v19.29l19.13,9.75ZM400,574l-21.95-11.19V540.32L400,551.5Zm-1.41-21.59-19.13-9.75V561.9l19.13,9.76Zm-22.88-40.91-21.94-11.19V477.82L375.73,489Zm-1.4-21.59-19.13-9.75V499.4l19.13,9.75Zm1.4-28.54-21.94-11.18v-19.3l21.94,11.06Zm-1.4-18.56-19.13-9.64v16.16L374.33,459Zm1.4,43.62L353.79,475.2V452.75l21.94,11.19Zm-1.4-21.58L355.2,455v19.3l19.13,9.75ZM400,473.7l-21.95-11.19V443.08L400,454.13ZM398.61,455l-19.13-9.64v16.29l19.13,9.76ZM424.3,586.33l-21.94-11.19V552.69l21.94,11.19Zm-1.41-21.59L403.76,555v19.29L422.89,584Zm1.41-3.48-21.94-11.18V527.63l21.94,11.19Zm-1.41-21.58-19.13-9.76v19.3L422.89,559Zm1.41,96.77-21.94-11.19V602.82L424.3,614Zm-1.41-21.59-19.13-9.75V624.4l19.13,9.76ZM400,498.76l-21.95-11.18V465.13L400,476.32Zm-1.41-21.58-19.13-9.76v19.3l19.13,9.75Zm25.69,59L402.36,525V502.57l21.94,11.19Zm-1.41-21.58-19.13-9.76v19.3l19.13,9.75ZM400,523.82l-21.95-11.18V490.19L400,501.38Zm-1.41-21.58-19.13-9.76v19.3l19.13,9.75ZM424.3,611.39,402.36,600.2V577.76l21.94,11.18Zm-1.41-21.59-19.13-9.75v19.29l19.13,9.76Zm52.31-25,21.06,10.73V598L475.2,587.21Zm1.41,21.58,18.25,9.31v-19.3l-18.25-9.3Zm-1.41,28.54,21.06,10.73v22.45L475.2,637.34Zm1.41,21.59,18.25,9.3v-19.3l-18.25-9.3Zm-1.41-46.65,21.06,10.73V623L475.2,612.27Zm1.41,21.58,18.25,9.31v-19.3l-18.25-9.3Zm-128.44-59.7,1.58-.77h0l-1.58.77Zm-17.26,8.42h0l-1.4.68h0Zm8.13,6.22h0l-.8,1.17h0ZM475.2,640l21.06,10.74v22.44L475.2,662.4Zm1.41,21.59,18.25,9.3V651.55l-18.25-9.31ZM304.86,572.83h0l1.41-.68h0Zm19.76-9.64-1.57.77h0l1.58-.77Zm2.55,20.51h0l-1.64,2.4h0Zm-20.9-9v-.58l-1.41.69v.75l1.6.81.81-1.16Zm168.93-35,21.06,10.74v22.44L475.2,562.15Zm1.41,21.59,18.25,9.3V551.3L476.61,542Zm-1.41-46.65,21.06,10.74v22.44L475.2,537.09Zm1.41,21.59,18.25,9.3V526.24l-18.25-9.31ZM351.45,499.07l-21.94-11.19V465.44l21.94,11.18Zm-1.4-21.59-19.14-9.75V487l19.14,9.76Zm3.74,97.84,1.41-2.05-1.41,2.05Zm20.54-10.27v19.29l-18.18-9.27-.8,1.17,20.38,10.39V564.19l-9-4.58-.8,1.16Zm-22.88-91-21.94-11.19V440.38l21.94,11.18Zm-1.4-21.59-19.14-9.75V462l19.14,9.76Zm3.74,126.09.23-.33,21.71,11.07v22.44l-21.94-11.18Zm1.41,21.14,19.13,9.75V590.11l-19.13-9.76Zm-24.29-64.31-1.4.69h0Zm43.42,23.94-5.45-2.78-.8,1.17,7.65,3.9V546.5l-1.4,2ZM341,594h0l.8-1.17h0Zm9.05-13.21h0l1.4-2h0Zm-19.14-2.55-1.4,2h0l1.4-2ZM350.05,597l-6.64-3.38-.8,1.17,8.84,4.51v-17.4l-1.4,2.05Zm-13.94-26.39.8-1.17h0l-.8,1.17Zm-5.2-58.55V492.79l19.14,9.75v2.65l1.4-.7v-2.81L329.51,490.5v22.44l2.48,1.27,1.56-.78Zm142,149.13L450.92,650V627.57l21.94,11.19Zm-1.4-21.59-19.14-9.75v19.29l19.14,9.75ZM350.05,602.79v17.86l-18.75-9.34-.8,1.17,20.95,10.43v-21l-10.16-5.18-.81,1.17Zm-20.54,8h0l1.4-2h0Zm9.36-13.65h0l.8-1.17h0Zm12.58-148.15-21.94-11.18V418.61l21.94,11.05Zm-1.4-18.41-19.14-9.65v16l19.14,9.75Zm-43.78,94.05V505.29l19.5,9.94v2.09l1.4-.71v-2.24L304.86,503v22.44l2.29,1.17,1.56-.78Zm118-13.44L402.36,500V477.51l21.94,11.18Zm-1.41-21.59-19.13-9.75v19.29l19.13,9.76ZM424.3,659.2l-21.94-10.93V627.88l21.94,11.19Zm-1.41-19.27-19.13-9.76V647.4l19.13,9.53ZM400,647.1l-21.95-10.93V615.5L400,626.69Zm-1.41-19.55-19.13-9.76V635.3l19.13,9.54Zm-24.46,5.18v1.49h0v-1.49l-1.5.74h0Zm-3.49-.25h0l1.57-.78h0Zm-15.5-9.11h0l-1.37.69h0Zm0-1.94v-16l19.13,9.75V630l1.4.62v-16.3l-21.94-11.19v19l1.34-.67Zm-28-109.68-22.31-11.37V477.94l22.31,11.37Zm-1.4-21.58-19.5-9.94v19.29l19.5,9.94ZM475.2,665l21.06,10.74V695L475.2,684.55Zm1.41,18.67,18.25,9.09V676.61l-18.25-9.31Zm19.65-181v20.13L475.2,512V492Zm-1.4.87-18.25-9.2v16.87l18.25,9.3ZM448.58,671.29l-21.94-10.93v-20.1l21.94,11.18Zm-1.4-19L428,642.55v16.94L447.18,669Zm-133-49.54h0l-.8,1.17h0ZM324.2,588h0l-.8,1.17h0Zm-19.34-9.86v.51l.26-.37Zm22.31-91.49-22.31-11.37V452.87l22.31,11.37Zm-1.4-21.59-19.5-9.94v19.3l19.5,9.94Zm1.4-3.47-22.31-11.37V427.81l22.31,11.37ZM325.77,440l-19.5-9.94v19.3l19.5,9.94Zm1.4-3.47L304.86,425.2v-19l22.31,11.24Zm-1.4-18.28-19.5-9.82v15.87l19.5,9.94Zm-19.5,131.17-1.41.69h0l1.41-.69Zm18.66-11.17h0l-1.57.77h0Zm-18.66,9.19-1.41.69h0l1.41-.69Zm142.31,26.16-21.94-11.18V540l21.94,11.19Zm-1.4-21.58L428,542.3v19.3l19.14,9.75Zm1.4-28.54-21.94-11.19V489.89l21.94,11.18Zm-1.4-21.59L428,492.18v19.29l19.14,9.76Zm25.68,181.46-21.94-10.93V652.64l21.94,11.18Zm-1.4-18.71-19.14-9.75v16.66l19.14,9.53Zm-22.88-66-21.94-11.18V565.07l21.94,11.19Zm-1.4-21.58L428,567.36v19.3l19.14,9.75Zm-22.88-91-21.94-11.19V455.31l21.94,11.06Zm-1.41-18.84-19.13-9.65V474l19.13,9.76Zm25.69,156.53-21.94-11.19V590.13l21.94,11.19Zm-1.4-21.59L428,592.43v19.29l19.14,9.75Zm1.4,46.65-21.94-11.19V615.2l21.94,11.18Zm-1.4-21.59L428,617.49v19.29l19.14,9.76Zm1.4-78.66-21.94-11.19V515l21.94,11.18ZM447.18,527,428,517.24v19.29l19.14,9.76Zm25.68,8.91-21.94-11.19V502.26l21.94,11.19Zm-1.4-21.59-19.14-9.75v19.29l19.14,9.75Zm1.4-3.48-21.94-11.18V479.79l21.94,11Zm-1.4-19.12-19.14-9.64v16.72l19.14,9.75Zm1.4,69.25-21.94-11.19V527.33l21.94,11.18Zm-1.4-21.59-19.14-9.75v19.29l19.14,9.76Zm1.4,71.71L450.92,599.9V577.45l21.94,11.19Zm-1.4-21.58-19.14-9.76V599l19.14,9.75Zm1.4,46.64L450.92,625V602.51l21.94,11.19Zm-1.4-21.58-19.14-9.76v19.3l19.14,9.75Zm-22.88-116.1-21.94-11.19V467.55l21.94,11.06Zm-1.4-19L428,469.83v16.58l19.14,9.75ZM472.86,586l-21.94-11.19V552.39l21.94,11.18Zm-1.4-21.59-19.14-9.75V574l19.14,9.76Zm-166.6-14.28v-2l-4.13,2v.16l-21.84,11.13V561l-2.81,1.38v.6l-15.49,7.9V574l1.81-.92v-2Zm69.27,89.44,1.81.91-.05,18L261.1,715.05l-23.26-9.9.09-29.87.16-.22,40.61-58.62,3.34-1.66-41.78,60.3h0l5.61,1.84,14.32,4.7h0l16-23.35,34.5-50.44,1.62.81-24.13,35.27-26.69,39,0,2.8.44,26.9,72.16-35.56,40-19.69h0Zm-114,73.11-.48-29.38h0l-19.93-6.54,0,15.22,0,12,11.53,4.9,8.95,3.82h0Zm79.52-116.78,1.62.83,1.32-1.94L341,594Zm3.74-2.28,6.64-9.67v-3.19l-8.25,12Zm-32-22h0l10.44-5.09L325,565l-2-1-16.78,8.18v2l2.65-1.3-1.65,2.39,1.62.82,2.89-4.16Zm42.39,3.69-2.34,3.41v3.19l2.34-3.41v-.45l.23.12,1.33-1.94-1.56-.79Zm-3.74-70.13-16.5,8.24,2,1,14.53-7.25ZM330.91,611.12l.39.19,9.18-13.39-1.61-.83-8,11.6Zm-1.4-.38L327,614.42l1.63.82,1.89-2.76-1-.5Zm24.28,13.32v-2L348,625l2,1Zm20.36,10.16,0,3.81,1.81.9,0-8.21-.24-.11V635Zm-48.38-116.9-17.06,8.51,2,1,15.08-7.53Zm47.38-2.77h0l-17.95,8.84v1.07l.91.47L374.26,516h0l0,13.73v4.43l.12.07v-19.3l-19.13-9.75v.56l15.87,7.8Zm-4.31,120.82,3.81-1.9-2-1-3.81,1.9Zm4.12-4h0l-.74.37,2.1,1V630l-19.13-8.56v1.78l3.35,1.67L373,631.33Zm-64.88-54.12-1.62-.83-1.34,1.94,1.62.82Zm-3.22,4.64v-3.16l-4.13,6v3.16Zm60.27-23.07,1.62.83,1.33-1.94-1.62-.83Zm-13.89-7.08,1.52-2.23-3,1.47Zm-50.51,23.15v.57l-21.84,11.14V585.5l-2.59,1.27-.22.1V588l-15.2,7.75.53.27,43.45-21.19v-2Zm66.53-19.18,1.62.83,5.45-8V540l-.14-.07v5.68Zm-13.47-31.59-3.85,1.9,1.51.77v.47l3.09-1.52-.75-.38Zm-5.42,2.67L334,533.84l-3.06,1.5v1.81l.19.09,18.95-9.33v-.3Zm18.9,109.41-2-1-76.47,38.13h0l7.1-10.35,10.28-15h0l1.65-2.42.65,1.27,39.95-20-2-1-38.19,19.16,19.54-28.5-1.63-.82-42.72,62.32ZM242.68,580l-1.81.93V584l1.81-.92Zm11.93-14.19-2.81-1.43v2l2.81,1.44Zm33.69,40L285,607.42l-4.6,6.63,3.34-1.66Zm66.9-32.49v1.32l.95.48,9.8-14.3-1.62-.82-6.65,9.7ZM251.8,589.06v2l2.81,1.45v-2Zm77.71-71.62v-1.88l1.86,1,2.59-1.3-2-1-4.82,2.4v2ZM325,590l-1.62-.82-9.26,13.55,1.62.81Zm4.49-54-4.58,2.26,2,1,2.61-1.29h0Zm24.28-30.72V504l21.94,10.05v22.44l-1.53-.78v2.61l1.53.78v7.38l.11-.15.14-.22.1-32.13-22-10.82-2.62,1.31v2Zm-26.65,81.61-1.61-.82L324.2,588l1.62.82Zm-22.28-57.17v-1.69l1.68.85,2.59-1.29-2-1-6.42,3.21v2Zm24.65,53.72v-3.19l-2.34,3.42v3.19Zm-74.9-28.63v-2l-2.81,1.4v2Zm74.9,6-4.88,2.39,2,1,2.9-1.42Zm-16.17,43.12-1.87,2.73,1.62.81,1.87-2.73Zm-7.07-56.45v2L318,543.69l7.35-3.62-2-1Zm30.64,22,1.62.82,1.32-1.94-1.61-.82ZM347.46,554h0L339,566.35l1.61.82,9.4-13.73v-.77l-1.88-1-17.26,8.42v2Zm-16.55,24.19v3.18l6.82-10-1.62-.82Zm-52-35.51v-2l-2.81,1.4v2Zm32.58,63.94-.8,1.17,1.62.81.8-1.17ZM282,614.78l1.66-2.39-3.34,1.66-1.66,2.39Zm84.81,19.6-1.57.78,2,1,1.57-.79Zm7.28,4.13v1.08l1.81.91v-1.57l-1.81-.9Zm-47.95-22.92,1.63.82.8-1.17-1.63-.82Zm22.27,11.15L350,626l-2-1-1.57.79Zm-72.37-82.62v-2l-21.47,10.73v2Zm-21.47,21.64v2l6,3.05h0l15.49-7.9v-.6l-14.36,7.07Zm24.28,20.8,21.84-11.14v-.57L278.89,585.5Zm-36.19-14,0-10.85h0l9.06,4.64v-2l-8-4.09h0l8-4v-2l-10.38,5.18-.49.25-.06,21.2,1.81-.93Zm0,11.83h0V583.1l-1.81.92v1.42l10.94,5.63v-2Zm33.41,2.5-13.75,6.71,0-6.64,0-13.89-1.81.92-.06,19.58h0l-5.91-3v2l6.27,3.22,15.2-7.75Zm16,13.43,8.65-12.48v-3.16L285,607.42l3.34-1.66Zm8.65-68.49v-2l-21.84,10.9v2Zm-21.84,29.68,21.84-11.13v-.16L278.89,561Zm76.31-38.1-1.41.69v1.24l.75.38,1.57-.77-.91-.47Zm0-17.66v-.56l19.13,9.75v19.3l-.12-.07v1.58l1.53.78V514.07L353.79,504v1.29l.28-.14Zm-5.15,47.71,1.19-1.74-1.49-.76-1.58.77,1.88,1Zm-19.14,8.67v-2l-1.4.68v2Zm7.33,5.41,1.61.82.8-1.17-1.61-.82Zm-11.07,19.37V583.7l-1.64,2.4,1.61.82Zm-2.54-23.69-1.58.77,2,1,1.58-.77Zm-18.36,8.95-1.41.68v2l1.41-.69Zm2.62,3.89-1.62-.82-.81,1.16,1.62.83ZM364.33,560l1.62.82.8-1.16-1.62-.83Zm-9.13,14.64v-1.32l-1.41,2.05v.13l1.56.79.8-1.17Zm-1.41,3.92.23-.33-.23-.12Zm-22.88-43.17-1.4.69v2h0l1.58-.77-.19-.09Zm-1.4-19.78v1.88l1.86-.93ZM349.94,526l-1.57.77,1.68.86v.3l1.4-.69v-.47Zm24.26,12.36v1.57l.14.07v8.57l1.4-2v-7.38Zm-6.94,17.33-.8,1.17,1.62.83.8-1.17Zm-17.21,25.11V584l1.4-2.05v-3.19Zm-8.25,12L341,594l1.61.82.8-1.17Zm-10.89-11.41v-3.18l-1.4,2v3.19Zm5.2-10.78,1.62.82.8-1.17-1.62-.82Zm-.59-56.2-2-1-1.56.78,2,1Zm14.53-7.25,1.4-.7v-2l-1.4.7Zm-11.18,89.91,1.61.83.81-1.17-1.62-.83Zm-8,14v-2.43l-1.4,2V612l1,.5.8-1.17Zm-20.22-84.28-2-1-1.56.78,2,1Zm15.08-7.53,1.4-.7v-2l-1.4.71Zm29.39,104.06h0l3.38,1.51-3.35-1.67v-1.78l-.07,0-1.34.67v2Zm19.17,9.37-2.1-1-1.57.78,2,1,1.5-.74v1.49l1.58.79v-4.4l-1.4-.62Zm-67.59-53.6-1.62-.82-.26.37v3.16Zm7.4,23.62-.8,1.17,1.62.81.8-1.17Zm11.68-13.9L324.2,588l-.8,1.17L325,590Zm-2.46-49.8,2,1,1.57-.77-2-1Zm-17.09,8.42-1.41.69v2l1.41-.69Zm-1.41-19.42v1.69l1.68-.84Zm-45.2,155.26.48,29.38h0l-.48-29.38Zm-20,8.68,0,12,11.53,4.9L239.66,704Zm14.92-124.23h0l-2.81-1.44h0ZM242.68,580h0v3.15h0Zm17.91-9.12V574h0v-3.14Zm-6-3.06h0l6,3.06h0Zm-11.91,4.77,0,7.41h0Zm9.1-6.21-9.06-4.64h0l9.06,4.64Zm-9.13,16.77v1.26h0V583.1Zm17.85,10.45h0l.06-19.58h0Zm44.34-11.7h0l-4.13,6h0ZM347.46,554h0l-16.55,8.07h0Zm-35.68,17.83-.37-.24h0l.38.25L308.89,576h0Zm-3.7,5.34h0l-1.34,1.93h0Zm-67.82,97.87,5.61,1.84-5.61-1.84Zm89.25-112.29-2.9,1.42h0l2.9-1.41ZM260.19,681.62l16-23.35-16,23.35ZM325,565l-3.18,1.55L325,565Zm-24.3,22.84-8.65,12.48,8.65-12.48Zm30.18-25.71-1.4.68h0l1.4-.69Zm-22,13.93h0l-.81,1.17h0Zm17.72-11.83h0L325,565h0Zm-19.87,14.93h0l-1.88,2.71h0Zm19-59.83h0l-15.08,7.53h0Zm-16.64,8.31h0l-2.59,1.29h0Zm44.66-22.31h0l-2.34,1.17h0Zm-99.18,49.54h0l-2.81,1.4h0Zm74.9-37.41h0l-2.34,1.17h0Zm25.69-11.71h0l15.87,7.8Zm-5.15,1.45h0l-14.53,7.25h0Zm-71.16,35.54h0l-2.81,1.4h0ZM334,515.22h0l-2.59,1.3h0Zm39.19-.67h0l-17.95,8.84h0Zm-68.29,15.2h0l-4.13,2.06h0Zm43.51-3h0L334,533.84Zm5.42-2.67h0l-3.85,1.9h0Zm-77.71,20h0l-21.47,10.72h0ZM251.8,556.24l-8,4h0l8-4Zm48.93-24.43h0l-21.84,10.91h0Zm54.47-8.42h0l-1.41.69h0Zm-1.13-18.22,1.13.56h0l-1.13-.56-.28.14h0ZM349.94,526h0l-1.57.77h0Zm-18.57-9.47h0l-1.86.93h0Zm20.08-10h0l-1.4.7h0Zm-15.92,8h0l-1.56.78h0Zm-8.36,4.17h0l-1.4.7h0Zm-16.48,8.23h0l-1.56.78h0Zm-4.15,2.07h0l-1.68.84h0ZM374.26,516l-18.15,8.94h0L374.26,516Zm-48.92,24.08h0L318,543.69Zm-13,68.57-24.13,35.27,24.13-35.27Zm61.92-74.49h0v0ZM261.52,685.74l.44,26.9,72.16-35.56L262,712.64ZM374.2,538.34h0v-2.61h0Zm0,7.25-6.92,10.08,6.92-10.08v-5.68h0Zm-16.5,24.06,6.65-9.7h0Zm7.45-10.87h0l1.33-1.94h0Zm-34-21.54,18.95-9.33h0l-18.95,9.33Zm43,120.15h0l.05-17.8h0Zm-46.91-70.5h0l2.34-3.42h0Zm24.28-59.67h0l3.09-1.52h0Zm-20.54,54.2,6.82-10h0l-6.82,10Zm-4-42.12h0l2.61-1.29h0Zm13.75,27.87,9.39-13.73h0l-9.4,13.73Zm10.58-15.47,1.53-2.23h0l-1.52,2.23Zm-25.42,37.16h0l1.33-1.94h0Zm-10.06,14.71L325,590h0l-9.26,13.54Zm22.77-33.29h0l1.33-1.94h0ZM315,604.74l-1.87,2.73h0l1.87-2.73Zm-1.87,2.73h0l-.8,1.17h0Zm61,32.12v0ZM262.35,586.94l0,6.64,13.75-6.71-13.75,6.71Zm111.86-52.79v1.58h0v-1.58Zm-18.1-9.22-1.57.77h0l1.57-.77Zm-6.06,28.51h0l1.19-1.74h0Zm-9.4,13.73-.8,1.17h0l.8-1.17Zm-13.51,19.75h0l0,0h0Zm37.19-27h0l.8-1.17h0ZM331.1,537.24l-1.58.77h0l1.58-.77Zm18.95-9.33h0l1.4-.69h0Zm24.14,12h0v-1.57h0Zm-7.73,16.93.8-1.17-.8,1.17Zm-28.73,14.61h0l.8-1.17h0Zm-8.22,12h0l1.4-2.05h0ZM325,590h0l.8-1.16h0Zm-9.26,13.54-.8,1.17h0l.8-1.17Zm9.58-63.5h0l1.57-.77h0ZM288.81,673.29h0l7.1-10.35Zm19-27.78-1.65,2.42,2.3-1.15ZM373,631.33h0l-14.41-6.45,0,0Zm-14.41-6.45-3.38-1.51h0l3.43,1.53Z"/></svg>